PathFileType	4	(X/Y/Z)	T1_P2_NoVision_Movement_1_0-729.trc
DataRate	CameraRate	NumFrames	NumMarkers	Units	OrigDataRate	OrigDataStartFrame	OrigNumFrames
60	60	4	27	m	60	637	729
Frame#	Time	RHip			RKnee			RAnkle			RBigToe			RSmallToe			RHeel			LHip			LKnee			LAnkle			LBigToe			LSmallToe			LHeel			Neck			Head			Nose			RShoulder			RElbow			RWrist			RThumb			RIndex			RPinky			LShoulder			LElbow			LWrist			LThumb			LIndex			LPinky		
		X1	Y1	Z1	X2	Y2	Z2	X3	Y3	Z3	X4	Y4	Z4	X5	Y5	Z5	X6	Y6	Z6	X7	Y7	Z7	X8	Y8	Z8	X9	Y9	Z9	X10	Y10	Z10	X11	Y11	Z11	X12	Y12	Z12	X13	Y13	Z13	X14	Y14	Z14	X15	Y15	Z15	X16	Y16	Z16	X17	Y17	Z17	X18	Y18	Z18	X19	Y19	Z19	X20	Y20	Z20	X21	Y21	Z21	X22	Y22	Z22	X23	Y23	Z23	X24	Y24	Z24	X25	Y25	Z25	X26	Y26	Z26	X27	Y27	Z27
638	10.633333333333333	454.52813676557975	3630.448609636764	545.2944609870933	869.5603647272058	3704.093838168572	565.7803052837966	1241.501300987107	3706.778467411561	615.5313197075484	1328.453525834438	3627.3747998155864	611.3911197046083	1309.7442675386778	3638.675579078979	548.7450167932251	1270.0339547720116	3707.889160224663	633.0710941120108	454.82846886645666	3513.6083144287295	738.1425336599711	877.5415764687577	3549.871635822365	749.880687668313	1221.2713019406463	3597.8646645264703	739.2653303179335	1331.8727849556622	3563.689333739435	686.1575622207043	1280.2072225138634	3478.0994958123883	716.7952143664619	1268.4599948917214	3625.542087610874	734.0731341939295	-112.82584908096648	3540.028908997064	642.8842806940498	-364.62935469118327	3499.472248804213	626.1988146670137	-224.73372315927006	3431.5226327929427	585.1330541859082	-34.959966825793785	3700.101900871107	545.123440622709	203.8039017703339	3766.8299077666397	492.1028378737372	435.4121515803522	3670.107213490249	408.1990849940762	557.859477977504	3623.851373296859	410.7182629225606	585.5524088314521	3646.071640856589	399.6648430862708	568.5988056128651	3654.610583452272	390.41306682778924	-17.95690707945529	3554.484000544125	835.0239371458878	232.858571889545	3448.845412546196	848.1617073279116	484.4570598593131	3449.1228361971894	846.3024175814281	598.1874813697875	3452.889633568177	824.0562919921167	607.477947459515	3439.694554461701	830.1157449184979	614.7796234214157	3455.6494435434306	901.400911045592
639	10.65	459.82143011608775	3634.5054479350383	546.7367130850876	875.3481179720827	3689.80188075121	563.0312880616359	1247.6706405096234	3708.601657584523	617.1443526281664	1333.326818027345	3627.9818611361297	612.5645159096605	1309.4690583789716	3637.946685679033	548.4980386180829	1268.8069984073989	3688.4488270222187	629.2548646206162	454.76460018229403	3513.42992114984	738.0983903326465	877.7743630337727	3550.1852703589434	749.9037774862578	1228.4366339767837	3604.7245491553313	736.0498359895644	1331.865671573451	3563.5852276281803	685.9042749587184	1280.2690259439287	3478.072274277103	716.6329491896929	1269.0799220205977	3628.4012057600967	730.6946020345828	-112.74494169333255	3540.2872686923415	643.0263936513883	-364.5698576360344	3499.434627631958	626.1566889115983	-224.72658245151274	3431.3434444590234	585.0433889699387	-35.01144835366769	3700.571053353553	545.3816890451651	203.86585682507254	3767.162529351857	492.2622733963594	435.44551149197093	3670.197552848007	408.295878638621	561.690947543147	3618.555463081933	408.4219671013617	585.5049907213858	3645.985559085375	399.62885933250334	568.4432651527477	3654.9697440189775	390.42881242434504	-22.76915537774573	3550.977449328219	833.4679699800415	234.7788251739407	3469.554517690815	855.262406796147	484.38015709386866	3449.2678947944405	846.344306356187	593.4436253277478	3453.171736578959	819.0547092848112	607.3608575788936	3439.9525277556936	830.0308641746789	614.8469405089941	3458.097020613963	896.9922511321123
640	10.666666666666666	454.4871698225452	3630.1323423558138	545.3397702713456	869.5170568584449	3703.6545411163875	565.548359872223	1241.6882705825235	3706.2903073138486	615.6320233892377	1333.3626911373242	3628.1475117554373	612.6524347370055	1309.347080517141	3637.880016038457	548.4024229236198	1278.0858665593191	3701.267299064023	635.9337452516955	449.93091550760477	3511.9292586715633	737.0713744331377	872.7458533576212	3548.4154990900183	748.778581878398	1228.6873833452842	3602.80860934426	740.9346516462226	1331.0582278119239	3559.7954483913013	689.588206112753	1279.771056753396	3474.985228787561	720.9303333729063	1263.9139666417836	3624.8915620819066	732.9940314822408	-112.88133192406072	3540.291343141297	643.0195479533854	-364.5863830585508	3499.4986551612787	626.2310834672311	-224.8608302544266	3431.396915883839	585.0767381671786	-35.02786913019974	3700.587865551471	545.4319180940626	203.7568741511723	3766.9311920848922	492.1442735061056	430.4235861972405	3667.1589108255603	407.602376845178	557.7855312335515	3624.079756615429	410.89375423203876	585.4964053662862	3646.2797719693685	399.78316351399445	566.661897345143	3670.0456736453243	393.328577327098	-22.75220170780548	3551.007413843654	833.4292373900189	234.69060004607348	3469.5390635455415	855.1863935828359	484.2229308884186	3449.3760764293784	846.4338214098088	593.4330610732624	3452.8590759536337	819.0212771117713	607.3552719249243	3439.7348263574872	830.01923128432	614.718220714936	3456.024229464503	901.5810873621647
641	10.683333333333334	459.6369005534292	3634.3296296718304	546.6288569240489	864.1770095811753	3683.0555784031494	560.2210840332339	1235.6195313690316	3703.3688651649773	614.9703767917127	1333.4564780718874	3628.8035838844517	612.7883840263673	1302.8137060381894	3633.9549095936063	547.520907984221	1275.949600947578	3709.5151973281068	634.7121776722656	449.8191541940424	3511.9846187831695	737.132537206319	872.0276260930398	3547.706098722727	748.4142694501522	1221.6774413623625	3600.638837540587	735.3272044662027	1325.7062329917608	3559.860412242854	685.1826124990217	1280.2122109365039	3478.1637619659055	716.8075888817832	1271.1933633488586	3621.113330156702	731.7043728479877	-112.88785994221867	3540.495041417692	643.164577833955	-368.5851530320595	3498.5096257040154	626.0243289848461	-224.7849120769231	3431.5985747307027	585.1761359962321	-34.89884193918816	3700.8518026487	545.4320722854435	209.0877389942668	3771.204178727369	493.46329278351817	435.4929790856564	3670.359535482713	408.3897644937686	557.8761945107476	3624.3656080016553	410.89155831858164	579.8517683391053	3644.688402712084	398.76784640538284	566.5391772010561	3669.158610063359	393.14231094973456	-22.753201645201194	3551.3671728287213	833.7191761742342	234.75401124043086	3469.9048475387312	855.4096894791536	479.9020956566296	3448.027108045899	845.3887890904055	590.3714560046405	3456.933239268034	821.6170562790222	607.1900587487075	3439.8221886989772	830.2454782792468	611.0880385677232	3462.5898971129513	899.6186158877906
